<?xml version="1.0" encoding="UTF-8"?>
<svg id="Layer_2" data-name="Layer 2" xmlns="http://www.w3.org/2000/svg" viewBox="0 0 684.61 139.62">
  <g id="Layer_1-2" data-name="Layer 1">
    <g>
      <g>
        <path d="M70.01,110.44L116.49,1.53c1.94-1.73,23.54-1.35,24.52.02l-57.5,136.86c-1.31,1.58-23.18,1.65-25.02,0L0,1.55C1.1.33,21.79-.01,24,1.04l1.48,1.51c14.7,36,30.36,71.79,44.52,107.88Z"/>
        <path d="M430.5.54c8.47.69,21.15,4.04,28.41,8.58,29.21,18.06,23.95,68.21-9.65,78.11-.84.49-1.66-.27-1.24,1.7l35.98,50.48h-26.5l-34.45-48.46c-11.71-.92-23.25,1.14-35.05.5v47.95h-23V.54c21.26,1.27,44.46-1.71,65.5,0ZM388,69.48h46.5c7.75,0,18.34-8.68,19.41-16.57,1.69-12.42-.96-23.62-13.64-28.16-1.49-.54-7.71-2.22-8.78-2.22h-43.5v46.95Z"/>
        <path d="M299,22.52h-79v36.96h69v19.48l-69,1.5v36.96h79v21.98h-101.5c-.11,0-1.5-1.39-1.5-1.5V2.04c0-.11,1.39-1.5,1.5-1.5h100c.11,0,1.5,1.39,1.5,1.5v20.48Z"/>
        <path d="M542,139.41l.46-3.04L601.98,1.02c4.14-.37,22.12-1.82,24.09,1.2,17.89,45.62,40.62,89.63,58.5,135.16.25,1.1-.7,2.03-1.07,2.03h-23l-47-110.9-48,110.9h-23.5Z"/>
      </g>
      <circle cx="613.8" cy="92.01" r="9.62"/>
    </g>
  </g>
</svg>